<svg id="Ebene_1" data-name="Ebene 1" xmlns="http://www.w3.org/2000/svg" viewBox="0 0 38 37"><defs><style>.cls-1,.cls-2{fill:none;stroke:#000;stroke-miterlimit:10;}.cls-1{stroke-width:3.6px;}.cls-2{stroke-width:2.8px;}</style></defs><title>Audioguide</title><path class="cls-1" d="M35,27V19.24A16.24,16.24,0,0,0,19,2.76,16.24,16.24,0,0,0,3,19.24V27"/><path class="cls-2" d="M9.6,20.5h3.9a0,0,0,0,1,0,0v14a0,0,0,0,1,0,0h-4a2,2,0,0,1-2-2V22.6A2.1,2.1,0,0,1,9.6,20.5Z"/><path class="cls-2" d="M26.6,20.5h3.9a0,0,0,0,1,0,0v14a0,0,0,0,1,0,0h-4a2,2,0,0,1-2-2V22.6A2.1,2.1,0,0,1,26.6,20.5Z" transform="translate(55 55) rotate(180)"/></svg>