<svg id="Ebene_1" data-name="Ebene 1" xmlns="http://www.w3.org/2000/svg" viewBox="0 0 38 37"><defs><style>.cls-1{fill:#96cfc1;}</style></defs><title>Info_Button_2</title><circle cx="19" cy="18.5" r="17.5"/><rect class="cls-1" x="16.98" y="25.78" width="3.52" height="3.81"/><path class="cls-1" d="M18.77,7.85a6.32,6.32,0,0,0-6.58,6.62v1.06H15.3V14.47c0-2.34,1.4-3.91,3.47-3.91A3.1,3.1,0,0,1,22,13.91c0,1.61-1,2.57-2.16,3.68-1.32,1.26-2.81,2.68-2.81,5.33v1.15h3.12v-.92c0-1.65,1.06-2.73,2.19-3.88l.29-.31c1.17-1.22,2.48-2.59,2.48-5.05C25.15,10.29,22.59,7.85,18.77,7.85Z"/></svg>