<svg id="Ebene_1" data-name="Ebene 1" xmlns="http://www.w3.org/2000/svg" viewBox="0 0 26 46"><defs><style>.cls-1{fill:#fff;}</style></defs><title>Standpunkt</title><path class="cls-1" d="M22.6,25.17l-5-5-1.48-.3a9.51,9.51,0,1,0-6.39-.13l-2.13.43-4,4-1,8v11h21v-10Z"/><path d="M18.5,18.67a9.5,9.5,0,1,0-10.8,0A11.44,11.44,0,0,0,1.35,28.85V44.57H24.86V28.85A11.45,11.45,0,0,0,18.5,18.67ZM13.1,4.37a6.5,6.5,0,1,1-6.5,6.5A6.51,6.51,0,0,1,13.1,4.37Zm8.76,37.2H4.35V28.85a8.62,8.62,0,0,1,8.75-8.47,8.63,8.63,0,0,1,8.76,8.47Z"/></svg>