<svg id="Ebene_1" data-name="Ebene 1" xmlns="http://www.w3.org/2000/svg" viewBox="0 0 88 37"><defs><style>.cls-1{fill:#1d1d1b;}</style></defs><title>wwww</title><path class="cls-1" d="M1.65,15.14H5.3L8.63,28.23l.91,3.61h0c.32-1.23.56-2.34.88-3.57l3.37-13.13h4.68l3.37,13.13.91,3.61h0c.32-1.31.64-2.46,1-3.77l3.29-13h3.65l-6.06,20.5H20.89L17.08,21.56c-.32-1.19-.59-2.38-.91-3.56h0c-.32,1.18-.56,2.37-.87,3.56L11.45,35.64H7.68Z"/><path class="cls-1" d="M29.29,15.14h3.65l3.33,13.09.91,3.61h0c.32-1.23.56-2.34.87-3.57l3.38-13.13h4.68l3.37,13.13.91,3.61h0c.32-1.31.63-2.46,1-3.77l3.29-13h3.65l-6.07,20.5H48.53L44.72,21.56c-.32-1.19-.6-2.38-.91-3.56h0c-.32,1.18-.56,2.37-.87,3.56L39.09,35.64H35.32Z"/><path class="cls-1" d="M56.93,15.14h3.65l3.33,13.09.91,3.61h0c.32-1.23.56-2.34.87-3.57l3.38-13.13h4.68l3.37,13.13.91,3.61h0c.31-1.31.63-2.46,1-3.77l3.29-13H86l-6.07,20.5H76.16l-3.8-14.08c-.32-1.19-.6-2.38-.91-3.56h0c-.32,1.18-.56,2.37-.88,3.56l-3.8,14.08H63Z"/></svg>