<svg id="Ebene_1" data-name="Ebene 1" xmlns="http://www.w3.org/2000/svg" viewBox="0 0 158 43"><defs><style>.cls-1{fill:#96cfc1;stroke:#1d1d1b;stroke-miterlimit:10;stroke-width:5px;}.cls-2{fill:#1d1d1b;}</style></defs><title>Bf-Ehrenfeld Bhf</title><rect class="cls-1" x="3.84" y="4" width="34.73" height="34.73"/><rect class="cls-1" x="38.82" y="10.71" width="113.18" height="22.1"/><path class="cls-2" d="M27.8,20.58H22.3v-5.5h5.5Zm-1.65,6.6a1.65,1.65,0,1,1,1.65-1.64,1.68,1.68,0,0,1-1.65,1.64m-6-6.6H14.6v-5.5h5.5Zm-3.85,6.6a1.65,1.65,0,1,1,1.65-1.64,1.68,1.68,0,0,1-1.65,1.64m4.95-16.5c-4.84,0-8.8.55-8.8,4.4V25.54a3.9,3.9,0,0,0,3.85,3.85L14.6,31v.55H27.8V31l-1.65-1.65A3.91,3.91,0,0,0,30,25.54V15.08c0-3.85-4-4.4-8.81-4.4"/><path class="cls-2" d="M49.22,21.86l-1.65,1.75v3.71H46.09V16.19h1.48V21.8l5.14-5.61H54.6l-4.41,4.65,4.53,6.48H53Z"/><path class="cls-2" d="M55.35,23.3a4,4,0,1,1,8.07,0,4,4,0,1,1-8.07,0Zm6.67,0a2.66,2.66,0,1,0-5.27,0,2.66,2.66,0,1,0,5.27,0Zm-3.34-7.14v1.62h-1.4V16.16Zm2.81,0v1.62h-1.4V16.16Z"/><path class="cls-2" d="M66.45,16.19V27.32H65V16.19Z"/><path class="cls-2" d="M75.24,22.1v5.22h-1.4V22.24c0-1.42-.61-2-1.7-2s-2.23.68-2.23,2.79v4.27h-1.4V19.26h1.4V20.9h0a2.4,2.4,0,0,1,2.41-1.83A2.7,2.7,0,0,1,75.24,22.1Z"/><path class="cls-2" d="M87.65,26.08v1.24h-7V16.19h7v1.25H82.09V21h5.19v1.25H82.09v3.79Z"/><path class="cls-2" d="M96.2,22.1v5.22H94.79V22.24c0-1.42-.6-2-1.7-2s-2.23.68-2.23,2.79v4.27h-1.4V16.19h1.4V20.9h0a2.39,2.39,0,0,1,2.4-1.83A2.71,2.71,0,0,1,96.2,22.1Z"/><path class="cls-2" d="M99.5,23.5v3.82H98.1V19.26h1.4l0,1.95h0a2.58,2.58,0,0,1,2.37-2.06v1.4C100.47,20.65,99.5,21.65,99.5,23.5Z"/><path class="cls-2" d="M110.56,23.67h-6.33a2.55,2.55,0,0,0,2.57,2.67,2.1,2.1,0,0,0,2.26-1.42h1.37a3.42,3.42,0,0,1-3.6,2.59c-2.38,0-4-1.73-4-4.26a3.92,3.92,0,0,1,3.93-4.18c2.84,0,3.73,2.28,3.76,4.35Zm-1.42-1.12a2.25,2.25,0,0,0-2.34-2.32,2.47,2.47,0,0,0-2.56,2.32Z"/><path class="cls-2" d="M118.85,22.1v5.22h-1.4V22.24c0-1.42-.61-2-1.7-2s-2.23.68-2.23,2.79v4.27h-1.4V19.26h1.4V20.9h0a2.38,2.38,0,0,1,2.4-1.83A2.7,2.7,0,0,1,118.85,22.1Z"/><path class="cls-2" d="M122.7,18.26v1h1.36v1.15H122.7v6.91h-1.37V20.41h-1.11V19.26h1.11V18.2a1.78,1.78,0,0,1,2-2h.87v1.18h-.51C123,17.37,122.7,17.58,122.7,18.26Z"/><path class="cls-2" d="M132.78,23.67h-6.33A2.54,2.54,0,0,0,129,26.34a2.11,2.11,0,0,0,2.26-1.42h1.37a3.42,3.42,0,0,1-3.6,2.59c-2.39,0-4-1.73-4-4.26A3.92,3.92,0,0,1,129,19.07c2.84,0,3.73,2.28,3.76,4.35Zm-1.42-1.12A2.25,2.25,0,0,0,129,20.23a2.47,2.47,0,0,0-2.56,2.32Z"/><path class="cls-2" d="M135.8,16.19V27.32h-1.4V16.19Z"/><path class="cls-2" d="M145.3,16.19V27.32h-1.41v-1.6h0a2.62,2.62,0,0,1-2.72,1.79c-2.3,0-3.74-1.82-3.74-4.24s1.44-4.2,3.74-4.2a2.64,2.64,0,0,1,2.72,1.83h0V16.19Zm-1.36,7.08c0-1.58-.83-3-2.56-3s-2.55,1.43-2.55,3,.79,3,2.55,3C143.36,26.31,143.94,24.86,143.94,23.27Z"/></svg>