<svg id="Ebene_1" data-name="Ebene 1" xmlns="http://www.w3.org/2000/svg" viewBox="0 0 162 43"><defs><style>.cls-1{fill:#96cfc1;stroke:#1d1d1b;stroke-miterlimit:10;stroke-width:5px;}.cls-2{fill:#1d1d1b;}</style></defs><title>Bf-Hansaring_U-S</title><rect class="cls-1" x="3.84" y="4" width="34.73" height="34.73"/><rect class="cls-1" x="39.01" y="10.71" width="117.18" height="22.1"/><path class="cls-2" d="M49.22,21.86l-1.65,1.75v3.71H46.09V16.19h1.48V21.8l5.14-5.61H54.6l-4.41,4.65,4.53,6.48H53Z"/><path class="cls-2" d="M55.35,23.3a4,4,0,1,1,8.07,0,4,4,0,1,1-8.07,0Zm6.67,0a2.66,2.66,0,1,0-5.27,0,2.66,2.66,0,1,0,5.27,0Zm-3.34-7.14v1.62h-1.4V16.16Zm2.81,0v1.62h-1.4V16.16Z"/><path class="cls-2" d="M66.45,16.19V27.32H65V16.19Z"/><path class="cls-2" d="M75.24,22.1v5.22h-1.4V22.24c0-1.42-.61-2-1.7-2s-2.23.68-2.23,2.79v4.27h-1.4V19.26h1.4V20.9h0a2.4,2.4,0,0,1,2.41-1.83A2.7,2.7,0,0,1,75.24,22.1Z"/><path class="cls-2" d="M88.93,16.19V27.32H87.45v-5H82.09v5H80.61V16.19h1.48v4.93h5.36V16.19Z"/><path class="cls-2" d="M96.17,26.15v-.31h0a2.52,2.52,0,0,1-2.65,1.67c-1.93,0-2.82-1.23-2.82-2.39,0-2.37,2.87-2.35,4.08-2.57,1.06-.19,1.41-.48,1.41-1.15s-.64-1.16-1.8-1.16a1.57,1.57,0,0,0-1.74,1.45H91.22a2.85,2.85,0,0,1,3.11-2.63c3,0,3.24,1.92,3.24,3.16v3.47a10.23,10.23,0,0,0,.13,1.63H96.2C96.17,26.93,96.17,26.61,96.17,26.15Zm0-2.57V22.5h0c-.16.52-.53,1-2.23,1.27-1.17.2-1.87.45-1.87,1.35s.7,1.25,1.68,1.25C95,26.37,96.2,25.58,96.2,23.58Z"/><path class="cls-2" d="M106.27,22.1v5.22h-1.4V22.24c0-1.42-.61-2-1.7-2s-2.23.68-2.23,2.79v4.27H99.53V19.26h1.41V20.9h0a2.4,2.4,0,0,1,2.4-1.83A2.71,2.71,0,0,1,106.27,22.1Z"/><path class="cls-2" d="M110.84,20.26c-.77,0-1.53.44-1.53,1.12,0,.94,1.29,1.17,2.39,1.42s2.44.87,2.44,2.21c0,1.72-1.79,2.5-3.19,2.5s-3.14-.62-3.28-2.62h1.41c.18,1,.82,1.43,1.91,1.43.8,0,1.75-.29,1.75-1.23s-1.12-1-2.2-1.26-2.63-.81-2.63-2.39,1.56-2.37,3-2.37A2.85,2.85,0,0,1,114,21.69h-1.38A1.62,1.62,0,0,0,110.84,20.26Z"/><path class="cls-2" d="M120.69,26.15v-.31h0A2.52,2.52,0,0,1,118,27.51c-1.94,0-2.83-1.23-2.83-2.39,0-2.37,2.87-2.35,4.09-2.57,1.06-.19,1.4-.48,1.4-1.15s-.64-1.16-1.79-1.16a1.59,1.59,0,0,0-1.75,1.45h-1.4a2.84,2.84,0,0,1,3.1-2.63c3,0,3.25,1.92,3.25,3.16v3.47a11.74,11.74,0,0,0,.12,1.63h-1.5C120.69,26.93,120.69,26.61,120.69,26.15Zm0-2.57V22.5h0c-.15.52-.53,1-2.23,1.27-1.17.2-1.87.45-1.87,1.35s.7,1.25,1.69,1.25C119.51,26.37,120.72,25.58,120.72,23.58Z"/><path class="cls-2" d="M125.46,23.5v3.82h-1.4V19.26h1.4l0,1.95h0a2.56,2.56,0,0,1,2.37-2.06v1.4C126.43,20.65,125.46,21.65,125.46,23.5Z"/><path class="cls-2" d="M129.24,17.81V16.25h1.49v1.56Zm0,1.45h1.41v8.06h-1.41Z"/><path class="cls-2" d="M139.44,22.1v5.22H138V22.24c0-1.42-.61-2-1.7-2s-2.23.68-2.23,2.79v4.27h-1.4V19.26h1.4V20.9h0a2.39,2.39,0,0,1,2.4-1.83A2.71,2.71,0,0,1,139.44,22.1Z"/><path class="cls-2" d="M148.77,19.26V26.7a3.49,3.49,0,0,1-3.65,3.71c-2,0-3.55-1-3.72-2.74h1.4c.16,1.15,1,1.56,2.32,1.56s2.25-.71,2.25-2.53V25.56h0a2.62,2.62,0,0,1-2.72,1.79c-2.31,0-3.74-1.74-3.74-4.16s1.43-4.12,3.74-4.12a2.64,2.64,0,0,1,2.72,1.83h0V19.26Zm-3.91,6.89c2,0,2.56-1.45,2.56-2.88s-.83-3-2.56-3-2.56,1.36-2.56,2.93S143.1,26.15,144.86,26.15Z"/><path class="cls-2" d="M14.6,31.59H21V10.68c-4.75,0-8.6.6-8.6,4.4V25.54a3.9,3.9,0,0,0,3.85,3.85L14.6,31Zm0-16.51h5.5v5.5H14.6Zm0,10.46a1.65,1.65,0,1,1,1.65,1.64A1.68,1.68,0,0,1,14.6,25.54Z"/><path class="cls-2" d="M24.53,10.84V23.53c0,2.42-1.06,3.76-3.51,3.76h0v4.27h0c5.55,0,8.74-2.91,8.74-8.24V10.84Z"/></svg>