<svg id="Ebene_1" data-name="Ebene 1" xmlns="http://www.w3.org/2000/svg" viewBox="0 0 126.24 42.7"><defs><style>.cls-1{fill:#96cfc1;stroke:#1d1d1b;stroke-miterlimit:10;stroke-width:5px;}.cls-2{fill:#1d1d1b;}</style></defs><title>Bf-Köln_Bhf_West</title><rect class="cls-1" x="3.94" y="4.04" width="34.73" height="34.73"/><rect class="cls-1" x="38.92" y="10.74" width="82.18" height="22.1"/><path class="cls-2" d="M27.9,20.62H22.4v-5.5h5.5Zm-1.65,6.6a1.65,1.65,0,1,1,1.65-1.64,1.68,1.68,0,0,1-1.65,1.64m-6.05-6.6H14.7v-5.5h5.5Zm-3.85,6.6A1.65,1.65,0,1,1,18,25.58a1.68,1.68,0,0,1-1.65,1.64m4.95-16.5c-4.84,0-8.8.55-8.8,4.4V25.58a3.9,3.9,0,0,0,3.85,3.85L14.7,31.08v.54H27.9v-.54l-1.65-1.65a3.91,3.91,0,0,0,3.86-3.85V15.12c0-3.85-4-4.4-8.81-4.4"/><path class="cls-2" d="M49.32,21.9l-1.65,1.75v3.71H46.19V16.23h1.48v5.61l5.14-5.61H54.7l-4.41,4.65,4.53,6.48H53.05Z"/><path class="cls-2" d="M55.45,23.34a4,4,0,1,1,8.07,0,4,4,0,1,1-8.07,0Zm6.67,0a2.66,2.66,0,1,0-5.27,0,2.66,2.66,0,1,0,5.27,0ZM58.78,16.2v1.62h-1.4V16.2Zm2.81,0v1.62h-1.4V16.2Z"/><path class="cls-2" d="M66.55,16.23V27.36H65.14V16.23Z"/><path class="cls-2" d="M75.34,22.14v5.22h-1.4V22.28c0-1.42-.61-2-1.7-2S70,21,70,23.09v4.27h-1.4V19.3H70v1.64h0a2.4,2.4,0,0,1,2.41-1.83A2.7,2.7,0,0,1,75.34,22.14Z"/><path class="cls-2" d="M81.24,16.23l1.94,8.33.28,1.23h0l.28-1.23,1.89-8.33h2l1.82,8.33.28,1.24h0l.29-1.24,2-8.33h1.56L91.5,24.56l-.74,2.8h-2l-2.09-9.65h0l-1.57,6.85-.64,2.8h-2l-.7-2.8-2.09-8.33Z"/><path class="cls-2" d="M102.08,23.71H95.75a2.55,2.55,0,0,0,2.57,2.67A2.1,2.1,0,0,0,100.58,25H102a3.42,3.42,0,0,1-3.6,2.59c-2.39,0-4-1.73-4-4.26a3.93,3.93,0,0,1,3.93-4.18c2.84,0,3.73,2.28,3.76,4.35Zm-1.42-1.12a2.24,2.24,0,0,0-2.34-2.32,2.46,2.46,0,0,0-2.55,2.32Z"/><path class="cls-2" d="M106.31,20.3c-.77,0-1.53.43-1.53,1.12,0,.94,1.29,1.17,2.39,1.42s2.44.87,2.44,2.21c0,1.72-1.79,2.5-3.19,2.5s-3.14-.62-3.28-2.62h1.4c.19,1,.83,1.43,1.92,1.43.8,0,1.75-.29,1.75-1.23s-1.12-1-2.2-1.26-2.63-.81-2.63-2.39,1.55-2.37,3-2.37a2.86,2.86,0,0,1,3.12,2.62h-1.39A1.6,1.6,0,0,0,106.31,20.3Z"/><path class="cls-2" d="M112.93,20.45V25.1c0,.64.3,1.14.88,1.14h.5v1.12h-.64a2,2,0,0,1-2.11-2.17V20.45h-1.2V19.3h1.2v-2l1.33-.62h0v2.6h1.55v1.15Z"/></svg>