<svg id="Ebene_1" data-name="Ebene 1" xmlns="http://www.w3.org/2000/svg" viewBox="0 0 128 43"><defs><style>.cls-1{fill:#96cfc1;stroke:#1d1d1b;stroke-miterlimit:10;stroke-width:5px;}.cls-2{fill:#1d1d1b;}</style></defs><title>U-Ebertplatz</title><rect class="cls-1" x="3.84" y="4" width="34.73" height="34.73"/><rect class="cls-1" x="38.82" y="10.71" width="84.18" height="22.1"/><path class="cls-2" d="M30.11,11.14V23.62c0,5.33-3.2,8.24-8.75,8.24S12.6,29,12.6,23.62V11.14h5.22V23.83c0,2.34,1.1,3.76,3.55,3.76s3.52-1.34,3.52-3.76V11.14Z"/><path class="cls-2" d="M53.13,26.08v1.24h-7V16.19h7v1.25H47.57V21h5.19v1.25H47.57v3.79Z"/><path class="cls-2" d="M62.82,23.27c0,2.49-1.41,4.24-3.68,4.24a3,3,0,0,1-2.78-1.79h0v1.6h-1.4V16.19h1.4V20.9h0a3,3,0,0,1,2.78-1.83C61.41,19.07,62.82,20.77,62.82,23.27Zm-1.41,0c0-1.75-.9-3-2.55-3s-2.56,1.43-2.56,3,.81,3,2.56,3S61.41,25,61.41,23.27Z"/><path class="cls-2" d="M71.62,23.67H65.29a2.55,2.55,0,0,0,2.58,2.67,2.11,2.11,0,0,0,2.26-1.42H71.5a3.42,3.42,0,0,1-3.6,2.59c-2.39,0-4-1.73-4-4.26a3.92,3.92,0,0,1,3.93-4.18c2.84,0,3.72,2.28,3.75,4.35Zm-1.41-1.12a2.25,2.25,0,0,0-2.34-2.32,2.47,2.47,0,0,0-2.56,2.32Z"/><path class="cls-2" d="M74.59,23.5v3.82H73.18V19.26h1.41v1.95h0A2.57,2.57,0,0,1,77,19.15v1.4C75.55,20.65,74.59,21.65,74.59,23.5Z"/><path class="cls-2" d="M80.22,20.41v4.65c0,.64.29,1.14.87,1.14h.5v1.12H81a2,2,0,0,1-2.11-2.16V20.41h-1.2V19.26h1.2v-2l1.33-.62h0v2.6h1.54v1.15Z"/><path class="cls-2" d="M91.1,23.27c0,2.42-1.43,4.24-3.74,4.24a2.62,2.62,0,0,1-2.72-1.79h0v4.72H83.22V19.26h1.41V20.9h0a2.64,2.64,0,0,1,2.72-1.83C89.67,19.07,91.1,20.87,91.1,23.27Zm-1.4,0c0-1.58-.85-3-2.56-3s-2.56,1.43-2.56,3,.58,3.05,2.56,3.05C88.9,26.32,89.7,24.86,89.7,23.27Z"/><path class="cls-2" d="M94.12,16.19V27.32h-1.4V16.19Z"/><path class="cls-2" d="M101.23,26.15v-.31h0a2.52,2.52,0,0,1-2.65,1.67c-1.94,0-2.83-1.23-2.83-2.39,0-2.37,2.87-2.35,4.09-2.57,1.06-.19,1.4-.48,1.4-1.15s-.64-1.16-1.79-1.16a1.59,1.59,0,0,0-1.75,1.45h-1.4a2.84,2.84,0,0,1,3.1-2.63c3,0,3.25,1.92,3.25,3.16v3.47a11.74,11.74,0,0,0,.12,1.63h-1.5C101.23,26.93,101.23,26.61,101.23,26.15Zm0-2.57V22.5h0c-.15.52-.53,1-2.23,1.27-1.17.2-1.87.45-1.87,1.35s.7,1.25,1.69,1.25C100.05,26.37,101.26,25.58,101.26,23.58Z"/><path class="cls-2" d="M106.42,20.41v4.65c0,.64.3,1.14.88,1.14h.5v1.12h-.64a2,2,0,0,1-2.11-2.16V20.41h-1.2V19.26h1.2v-2l1.33-.62h0v2.6H108v1.15Z"/><path class="cls-2" d="M113.77,20.45h-4.34V19.26h6.09v.84l-4.76,6h4.88v1.18h-6.55v-.95Z"/></svg>