<svg id="Ebene_1" data-name="Ebene 1" xmlns="http://www.w3.org/2000/svg" viewBox="0 0 191 43"><defs><style>.cls-1,.cls-2{fill:#96cfc1;stroke:#1d1d1b;stroke-miterlimit:10;}.cls-1{stroke-width:5px;}.cls-2{stroke-width:4.97px;}.cls-3{fill:#1d1d1b;}</style></defs><title>U-Ebertplatz Kopie</title><rect class="cls-1" x="3.84" y="4" width="34.73" height="34.73"/><rect class="cls-2" x="38.82" y="10.71" width="147.18" height="22.1"/><path class="cls-3" d="M30.11,11.14V23.62c0,5.33-3.2,8.24-8.75,8.24S12.6,29,12.6,23.62V11.14h5.22V23.83c0,2.34,1.1,3.76,3.55,3.76s3.52-1.34,3.52-3.76V11.14Z"/><path class="cls-3" d="M54.41,16.19V27.32H52.93v-5H47.57v5H46.09V16.19h1.48v4.93h5.36V16.19Z"/><path class="cls-3" d="M61.65,26.15v-.31h0A2.52,2.52,0,0,1,59,27.51c-1.93,0-2.82-1.23-2.82-2.39,0-2.37,2.87-2.35,4.08-2.57,1.06-.19,1.41-.48,1.41-1.15s-.64-1.16-1.8-1.16a1.57,1.57,0,0,0-1.74,1.45H56.7a2.85,2.85,0,0,1,3.11-2.63c3,0,3.24,1.92,3.24,3.16v3.47a10.23,10.23,0,0,0,.13,1.63h-1.5C61.65,26.93,61.65,26.61,61.65,26.15Zm0-2.57V22.5h0c-.16.52-.53,1-2.23,1.27-1.17.2-1.87.45-1.87,1.35s.7,1.25,1.68,1.25C60.46,26.37,61.68,25.58,61.68,23.58Z"/><path class="cls-3" d="M71.75,22.1v5.22h-1.4V22.24c0-1.42-.61-2-1.7-2s-2.23.68-2.23,2.79v4.27H65V19.26h1.41V20.9h0a2.4,2.4,0,0,1,2.4-1.83A2.71,2.71,0,0,1,71.75,22.1Z"/><path class="cls-3" d="M76.32,20.26c-.77,0-1.53.44-1.53,1.12,0,.94,1.29,1.17,2.39,1.42s2.44.87,2.44,2.21c0,1.72-1.79,2.5-3.19,2.5s-3.14-.62-3.28-2.62h1.41c.18,1,.82,1.43,1.91,1.43.8,0,1.75-.29,1.75-1.23s-1.12-1-2.2-1.26-2.63-.81-2.63-2.39,1.56-2.37,3-2.37a2.85,2.85,0,0,1,3.11,2.62H78.1A1.62,1.62,0,0,0,76.32,20.26Z"/><path class="cls-3" d="M86.1,22.33v1.31h-5V22.33Z"/><path class="cls-3" d="M88.25,16.19h4.5a2.84,2.84,0,0,1,2.83,3,2.56,2.56,0,0,1-2.23,2.4h0A2.71,2.71,0,0,1,96,24.17a3.11,3.11,0,0,1-3,3.14H88.25ZM92,21c1.29,0,2.07-.61,2.07-1.85s-.78-1.73-2.07-1.73H89.73V21Zm.44,5.06a1.91,1.91,0,1,0,0-3.81H89.73v3.81Z"/><path class="cls-3" d="M97.1,23.3a4,4,0,1,1,8.08,0,4,4,0,1,1-8.08,0Zm6.68,0a2.66,2.66,0,1,0-5.27,0,2.66,2.66,0,1,0,5.27,0Zm-3.34-7.14v1.62H99V16.16Zm2.81,0v1.62h-1.41V16.16Z"/><path class="cls-3" d="M110.43,27.51a4,4,0,0,1-4.13-4.21,4,4,0,0,1,4.13-4.23,3.29,3.29,0,0,1,3.51,2.61h-1.4a2.1,2.1,0,0,0-2.15-1.45,2.77,2.77,0,0,0-2.68,3.07,2.76,2.76,0,0,0,2.68,3,2.12,2.12,0,0,0,2.2-1.48H114A3.36,3.36,0,0,1,110.43,27.51Z"/><path class="cls-3" d="M117.82,23.64l-.85.86v2.82h-1.41V16.19H117v6.59l3.49-3.52h1.7l-3.37,3.4,3.68,4.66h-1.79Z"/><path class="cls-3" d="M125.06,16.19V27.32h-1.4V16.19Z"/><path class="cls-3" d="M134.37,23.67H128a2.54,2.54,0,0,0,2.57,2.67,2.1,2.1,0,0,0,2.26-1.42h1.37a3.42,3.42,0,0,1-3.6,2.59c-2.39,0-4-1.73-4-4.26a3.92,3.92,0,0,1,3.93-4.18c2.84,0,3.73,2.28,3.76,4.35ZM133,22.55a2.25,2.25,0,0,0-2.34-2.32,2.47,2.47,0,0,0-2.56,2.32Z"/><path class="cls-3" d="M137.33,23.5v3.82h-1.4V19.26h1.4v1.95h0a2.58,2.58,0,0,1,2.37-2.06v1.4C138.3,20.65,137.33,21.65,137.33,23.5Z"/><path class="cls-3" d="M146.11,22.33v1.31h-5V22.33Z"/><path class="cls-3" d="M155.78,19.54a3.39,3.39,0,0,1-3.72,3.35h-2.32v4.43h-1.48V16.19h3.8A3.4,3.4,0,0,1,155.78,19.54Zm-1.49,0c0-1.31-.76-2.1-2.38-2.1h-2.17v4.21h2.17C153.53,21.66,154.29,20.85,154.29,19.54Z"/><path class="cls-3" d="M158.61,16.19V27.32h-1.4V16.19Z"/><path class="cls-3" d="M165.72,26.15v-.31h0a2.52,2.52,0,0,1-2.65,1.67c-1.94,0-2.83-1.23-2.83-2.39,0-2.37,2.87-2.35,4.09-2.57,1.06-.19,1.4-.48,1.4-1.15s-.64-1.16-1.79-1.16a1.59,1.59,0,0,0-1.75,1.45h-1.4a2.84,2.84,0,0,1,3.1-2.63c3,0,3.25,1.92,3.25,3.16v3.47a11.74,11.74,0,0,0,.12,1.63h-1.5C165.72,26.93,165.72,26.61,165.72,26.15Zm0-2.57V22.5h0c-.15.52-.53,1-2.23,1.27-1.17.2-1.87.45-1.87,1.35s.7,1.25,1.69,1.25C164.54,26.37,165.75,25.58,165.75,23.58Z"/><path class="cls-3" d="M170.91,20.41v4.65c0,.64.3,1.14.88,1.14h.5v1.12h-.64a2,2,0,0,1-2.11-2.16V20.41h-1.2V19.26h1.2v-2l1.33-.62h0v2.6h1.55v1.15Z"/><path class="cls-3" d="M178.26,20.45h-4.34V19.26H180v.84l-4.75,6h4.88v1.18h-6.55v-.95Z"/></svg>