<svg id="Ebene_1" data-name="Ebene 1" xmlns="http://www.w3.org/2000/svg" viewBox="0 0 188 43"><defs><style>.cls-1{fill:#96cfc1;stroke:#1d1d1b;stroke-miterlimit:10;stroke-width:5px;}.cls-2{fill:#1d1d1b;}</style></defs><title>U-Venloer-Str</title><rect class="cls-1" x="38.82" y="10.71" width="143.18" height="22.1"/><path class="cls-2" d="M55.19,16.19,51,27.31H49.14L45,16.19h1.63l3.43,9.62h.06l3.46-9.62Z"/><path class="cls-2" d="M63.53,23.67H57.2a2.55,2.55,0,0,0,2.58,2.67A2.11,2.11,0,0,0,62,24.92h1.37a3.42,3.42,0,0,1-3.6,2.59c-2.39,0-4-1.73-4-4.26a3.92,3.92,0,0,1,3.93-4.18c2.83,0,3.72,2.28,3.75,4.35Zm-1.42-1.12a2.24,2.24,0,0,0-2.33-2.32,2.47,2.47,0,0,0-2.56,2.32Z"/><path class="cls-2" d="M71.83,22.1v5.22H70.42V22.24c0-1.42-.6-2-1.69-2s-2.23.68-2.23,2.79v4.27H65.09V19.26H66.5V20.9h0a2.4,2.4,0,0,1,2.4-1.83A2.71,2.71,0,0,1,71.83,22.1Z"/><path class="cls-2" d="M75.2,16.19V27.32H73.79V16.19Z"/><path class="cls-2" d="M76.82,23.3a4,4,0,1,1,8.07,0,4,4,0,1,1-8.07,0Zm6.67,0a2.66,2.66,0,1,0-5.27,0,2.66,2.66,0,1,0,5.27,0Z"/><path class="cls-2" d="M93.7,23.67H87.37A2.55,2.55,0,0,0,90,26.34a2.11,2.11,0,0,0,2.26-1.42h1.37A3.42,3.42,0,0,1,90,27.51c-2.39,0-4-1.73-4-4.26A3.92,3.92,0,0,1,90,19.07c2.83,0,3.72,2.28,3.75,4.35Zm-1.42-1.12A2.24,2.24,0,0,0,90,20.23a2.47,2.47,0,0,0-2.56,2.32Z"/><path class="cls-2" d="M96.67,23.5v3.82H95.26V19.26h1.41v1.95h0a2.56,2.56,0,0,1,2.37-2.06v1.4C97.63,20.65,96.67,21.65,96.67,23.5Z"/><path class="cls-2" d="M107.56,17.17c-1.23,0-2.37.55-2.37,1.9,0,1.14,1.21,1.59,2.67,2,1.87.5,4,.86,4,3.25s-2.18,3.29-4.17,3.29c-2.47,0-4.34-1.19-4.34-3.79h1.48c0,1.71,1.2,2.54,2.86,2.54,1.3,0,2.69-.64,2.69-2s-1.4-1.62-2.82-2c-1.84-.5-3.82-1-3.87-3.15s1.84-3.26,3.85-3.26c2.27,0,3.78,1.17,3.9,3.47H110A2.18,2.18,0,0,0,107.56,17.17Z"/><path class="cls-2" d="M115.33,20.41v4.65c0,.64.3,1.14.87,1.14h.5v1.12h-.64a2,2,0,0,1-2.1-2.16V20.41h-1.2V19.26H114v-2l1.32-.62h0v2.6h1.54v1.15Z"/><path class="cls-2" d="M119.74,23.5v3.82h-1.4V19.26h1.4l0,1.95h0a2.58,2.58,0,0,1,2.37-2.06v1.4C120.71,20.65,119.74,21.65,119.74,23.5Z"/><path class="cls-2" d="M125.29,25.54v1.78h-1.71V25.54Z"/><path class="cls-2" d="M131.45,15.3l-3.8,13.54h-1.33l3.81-13.54Z"/><path class="cls-2" d="M142.79,21.65l-.14,5.67h-.94l-.19-2.13a3.65,3.65,0,0,1-3.8,2.4c-3.63,0-5.46-2.79-5.46-5.83s2-5.84,5.62-5.84a4.65,4.65,0,0,1,4.81,3.54h-1.48a3.1,3.1,0,0,0-3.33-2.29c-2.75,0-4.14,2.26-4.14,4.59s1.34,4.58,4,4.58a3.4,3.4,0,0,0,3.71-3.51l-3.48,0V21.65Z"/><path class="cls-2" d="M151.49,19.26v8.06h-1.41V25.69h0a2.39,2.39,0,0,1-2.4,1.82,2.71,2.71,0,0,1-2.92-3V19.26h1.4v5.08c0,1.42.61,2,1.7,2s2.23-.68,2.23-2.79V19.26Zm-4-1.48h-1.4V16.16h1.4Zm2.81,0h-1.41V16.16h1.41Z"/><path class="cls-2" d="M154.88,23.5v3.82h-1.4V19.26h1.4l0,1.95h0a2.56,2.56,0,0,1,2.37-2.06v1.4C155.85,20.65,154.88,21.65,154.88,23.5Z"/><path class="cls-2" d="M160.51,20.41v4.65c0,.64.3,1.14.88,1.14h.5v1.12h-.64a2,2,0,0,1-2.11-2.16V20.41h-1.2V19.26h1.2v-2l1.33-.62h0v2.6h1.55v1.15Z"/><path class="cls-2" d="M170.77,23.67h-6.33A2.55,2.55,0,0,0,167,26.34a2.11,2.11,0,0,0,2.26-1.42h1.37a3.42,3.42,0,0,1-3.6,2.59c-2.39,0-4-1.73-4-4.26A3.92,3.92,0,0,1,167,19.07c2.83,0,3.72,2.28,3.75,4.35Zm-1.42-1.12A2.24,2.24,0,0,0,167,20.23a2.47,2.47,0,0,0-2.56,2.32Z"/><path class="cls-2" d="M173.8,16.19V27.32h-1.41V16.19Z"/><rect class="cls-1" x="3.84" y="4" width="34.73" height="34.73"/><path class="cls-2" d="M30.11,11.14V23.62c0,5.33-3.2,8.24-8.75,8.24S12.6,29,12.6,23.62V11.14h5.22V23.83c0,2.34,1.1,3.76,3.55,3.76s3.52-1.34,3.52-3.76V11.14Z"/></svg>